<?xml version="1.0" encoding="UTF-8" standalone="no"?><!DOCTYPE svg PUBLIC "-//W3C//DTD SVG 1.1//EN" "http://www.w3.org/Graphics/SVG/1.1/DTD/svg11.dtd"><svg width="100%" height="100%" viewBox="0 0 800 410" version="1.1" xmlns="http://www.w3.org/2000/svg" xmlns:xlink="http://www.w3.org/1999/xlink" xml:space="preserve" xmlns:serif="http://www.serif.com/" style="fill-rule:evenodd;clip-rule:evenodd;stroke-linecap:round;stroke-linejoin:round;stroke-miterlimit:1.5;"><g><path d="M272.603,305.869c-1.146,0.187 -3.616,1.12 -3.899,1.059c-2.639,-0.572 -5.354,0.012 -8.043,0.172c-0.652,0.039 -2.376,-0.159 -2.466,0.84c-0.075,0.82 1.372,1.172 1.92,1.322c2.275,0.623 4.536,0.893 6.885,1.034c0.252,0.015 2.945,-0.087 2.401,0.67c-0.502,0.696 -1.913,0.704 -2.656,0.749c-2.285,0.137 -4.613,-0.169 -6.888,0.068c-0.537,0.056 -3.079,0.445 -2.776,1.49c0.146,0.502 1.473,0.307 1.819,0.307c1.957,-0 3.827,-0.306 5.766,-0.453c2.06,-0.155 4.021,0.996 5.911,1.671c1.203,0.429 2.467,0.507 3.731,0.579c1.666,0.095 3.331,0.08 4.996,0.162c0.742,0.036 1.63,0.397 0.836,1.19c-1.699,1.699 -6.142,1.014 -8.301,1.073c-4.725,0.127 -9.416,0.669 -14.141,0.554c-2.827,-0.069 -6.825,-0.543 -9.365,1.064c-1.003,0.635 2.026,1.118 2.271,1.147c2.271,0.264 4.566,0.289 6.839,0.538c0.385,0.042 1.93,0.247 2.12,0.705c0.086,0.206 -0.886,0.309 -0.982,0.321c-1.135,0.14 -2.268,0.298 -3.399,0.471c-2.263,0.347 -2.295,2.174 -4.142,3.062c-1.77,0.851 -4.199,0.649 -6.098,0.732c-4.273,0.188 -8.545,0.019 -12.814,0.332c-1.59,0.117 -3.286,0.135 -4.836,0.538c-0.395,0.103 -1.283,0.213 -1.399,0.727c-0.098,0.434 1.475,0.424 1.679,0.433c1.964,0.088 3.929,0.023 5.895,0.124c2.352,0.12 4.367,1.226 6.631,1.401c3.802,0.296 7.566,-0.439 11.395,-0.175c1.844,0.127 5.335,-0.594 6.973,0.453c0.525,0.335 0.253,0.922 -0.203,1.165c-0.857,0.458 -2.054,0.4 -2.993,0.486c-3.475,0.32 -7.005,-0.206 -10.446,0.296c-0.5,0.073 -3.102,0.248 -2.828,1.243c0.341,1.24 3.489,1.159 4.441,1.361c1.086,0.229 2.069,0.776 3.141,1.001c2.148,0.451 4.344,0.669 6.496,1.125c1.245,0.263 2.965,0.132 4.065,0.809c1.557,0.958 -2.356,1.889 -2.666,2.046c-0.202,0.103 -1.472,0.8 -0.683,0.955c0.781,0.153 1.738,-0.088 2.537,-0.088c2.536,0 5.058,-0.202 7.591,-0.074c0.471,0.024 3.198,0.062 3.026,0.979c-0.283,1.509 -3.137,1.449 -4.129,1.512c-3.757,0.236 -8.345,-0.401 -11.867,1.089c-7.48,3.165 -16.214,1.406 -24.077,1.234c-4.111,-0.09 -8.069,0.821 -12.186,0.223c-3.525,-0.513 -6.164,-2.68 -9.741,-2.711c-4.088,-0.035 -7.87,-1.115 -12.007,-1.056c-1.018,0.015 -3.994,0.426 -4.778,-0.496c-0.285,-0.335 0.86,-0.437 0.971,-0.453c1.216,-0.172 2.46,-0.191 3.684,-0.294c3.554,-0.297 7.336,-0.299 10.849,-0.872c0.913,-0.149 2.846,-0.81 2.527,-2.123c-0.143,-0.589 -1.39,-0.497 -1.814,-0.508c-1.539,-0.039 -2.533,0.884 -3.795,-0.238c0,0 -0.891,-0.35 -1.838,-0.745c-1.535,-1.227 -3.559,-1.022 -5.405,-1.052c-3.93,-0.065 -7.88,-0.174 -11.807,0.033c-6.936,0.365 -13.847,-0.44 -20.769,-0.11c-4.037,0.192 -7.873,1.228 -11.875,1.638c-2.37,0.242 -4.768,-0.017 -7.144,-0.017c-4.545,0 -9.1,0.327 -13.642,0.047c-1.126,-0.07 -3.864,0.101 -4.507,-1.185c-0.255,-0.511 1.859,-0.498 2.06,-0.513c2.367,-0.182 4.788,0.087 7.158,0.112c6.101,0.066 12.312,-0.052 18.36,-0.897c5.324,-0.743 10.519,-2.057 15.921,-2.23c8.216,-0.263 16.457,0.689 24.442,-1.577c2.313,-0.656 4.79,-0.718 7.158,-1.076c0.973,-0.146 2.465,-0.228 3.223,-0.957c1.182,-1.138 -3.118,-1.255 -1.317,-2.573c1.617,-1.183 4.546,-1.159 6.419,-1.731c2.049,-0.625 2.722,-1.629 4.225,-2.955c0.466,-0.411 1.326,-0.711 1.64,-1.253c0.754,-1.302 -1.809,-1.584 -2.485,-1.599c-3.788,-0.088 -7.545,-0.25 -11.316,-0.634c-3.897,-0.397 -7.737,-1.54 -11.645,-1.75c-2.247,-0.121 -4.487,0.22 -6.732,0.288c-5.078,0.152 -10.202,0.287 -15.282,0.225c-2.83,-0.035 -5.868,0.19 -8.65,-0.415c-0.408,-0.088 -2.339,-0.417 -2.419,-1.004c-0.062,-0.458 2.049,-0.561 2.299,-0.581c2.586,-0.213 5.174,0.132 7.755,-0.217c8.099,-1.094 16.096,-2.117 24.242,-2.872c2.535,-0.235 7.525,0.288 9.392,-1.953c0.787,-0.944 -3.03,-0.924 -3.486,-0.944c-3.884,-0.172 -7.825,0.109 -11.711,0.17c-1.078,0.017 -2.183,0.056 -3.251,-0.129c-0.224,-0.039 -0.864,-0.184 -0.889,-0.499c-0.034,-0.45 1.076,-0.79 1.367,-0.938c1.46,-0.743 2.768,-1.756 4.188,-2.568c1.826,-1.043 3.861,-1.073 5.805,-1.736c1.208,-0.412 2.152,-1.299 3.314,-1.819c1.456,-0.652 3.105,-0.879 4.666,-1.144c2.012,-0.341 4.041,-0.582 6.054,-0.927c0.795,-0.136 1.817,-0.127 2.527,-0.56c0.515,-0.314 0.292,-0.805 -0.104,-1.092c-0.619,-0.447 -2.016,-0.719 -1.797,-1.758c0.274,-1.301 1.804,-2.045 2.227,-3.344c0.156,-0.479 0.572,-1.782 0.467,-2.274c-0.084,-0.389 -0.426,-0.667 -0.456,-1.081c-0.038,-0.539 0.424,-1.002 0.409,-1.555c-0.043,-1.533 -0.337,-3.358 -0.539,-4.872l-0.041,-1.011c0.387,-1.806 -0.364,-4.294 -0.68,-6.072c-0.506,-2.852 -0.76,-5.731 -0.719,-8.63c0.058,-4.065 0.336,-8.03 0.695,-12.069c0.118,-1.333 1.23,-2.396 1.014,-3.774c-0.215,-1.376 -1.467,-1.344 -2.075,-2.382c-0.599,-1.022 0.49,-1.884 0.102,-2.854c-0.493,-1.232 -2.156,-1.382 -2.417,-3.027c-0.413,-2.594 2.258,-4.436 2.156,-6.974c-0.106,-2.647 -2.351,-3.692 -3.612,-5.709c-0.589,-0.943 -0.382,-2.172 -0.849,-3.168c-0.82,-1.748 -3.769,-0.75 -5.279,-1.451c-1.718,-0.798 -2.448,-2.793 -3.89,-3.954c-1.023,-0.824 -2.372,-1.748 -3.527,-2.375c-0.718,-0.39 -1.561,-0.493 -2.094,-1.177c-1.461,-1.88 -2.653,-4.053 -4.186,-5.949c-0.515,-0.637 -1.041,-1.268 -1.533,-1.924c-0.237,-0.316 -1.48,-1.83 -1.195,-1.556l-0.783,-0.986c-1.524,-1.41 -4.709,-4.443 -4.926,-6.982c-0.264,-3.072 1.791,-6.213 0.859,-9.222c-0.597,-1.931 -1.99,-3.288 -2.935,-5.036c-0.805,-1.489 -0.81,-3.233 -1.624,-4.69c-1.311,-2.345 -3.119,-4.264 -4.183,-6.748l-0.8,-0.735c-3.496,-3.085 -5.876,-5.416 -9.806,-7.959c-1.029,-0.666 -2.828,0.27 -3.713,-0.439c-0.641,-0.512 0.309,-2.57 -0.732,-3.561c-5.11,-4.867 -9.582,-8.993 -14.93,-13.603c-4.312,-3.718 -9.799,-8.229 -14.325,-11.623c-1.202,-0.902 -4.133,1.196 -5.413,-0.085c-1.323,-1.323 0.55,-3.743 -1.12,-5.492c-5.149,-5.394 -11.239,-10.149 -17.096,-14.909c-1.208,-0.981 -2.405,-1.963 -3.583,-2.951c-11.217,-9.408 -22.454,-18.594 -34.162,-27.375c-0.575,-0.432 -2.273,0.616 -2.932,0.287c-0.846,-0.424 0.398,-2.318 -0.371,-2.91c-5.495,-4.226 -10.837,-8.926 -16.69,-12.672c-1.787,-1.143 -2.285,-2.887 -4.27,-3.067l-0.914,-0.821c-1.234,-0.512 -1.924,-2.233 -3.069,-2.937c-0.833,-0.513 -1.898,-0.273 -2.793,-0.661c-1.573,-0.682 -2.998,-2.165 -4.172,-3.383c-5.682,-5.892 -4.055,-15.094 -0.553,-21.598l0.58,-0.993c1.431,-1.249 2.534,-2.933 4.016,-4.199c6.442,-5.499 14.585,-9.763 22.795,-11.886c4.495,-1.162 9.191,-1.232 13.802,-1.355c23.935,-0.639 46.593,10.503 66.165,23.489c8.154,5.409 17.123,11.853 23.624,19.283l1.051,0.541c-0.23,0.005 2.002,1.973 3.094,2.787c3.425,2.552 5.692,6.087 8.609,9.203c5.206,5.56 11.694,14.689 17.205,19.904c4.063,3.845 13.226,12.555 17.41,15.855c6.56,5.173 19.606,13.732 27.291,17.159c15.521,6.922 30.024,8.518 46.767,7.74c13.965,-0.65 30.649,-3.061 43.312,-9.564c10.943,-5.619 4.036,-16.007 -2.942,-21.336c-16.759,-12.8 -40.373,-19.07 -53.614,-4.357c-1.318,1.464 -6.781,8.833 -7.413,10.728l-0.309,1.087c0.219,1.024 -0.258,2.259 -0.37,3.306c-0.028,0.254 0.041,1.034 -0.172,1.22c-0.11,0.097 -0.294,-0.567 -0.498,-0.458c-0.491,0.261 -0.553,1.909 -0.64,2.386c-0.093,0.509 -0.161,3.054 -0.667,3.334c-0.128,0.072 -0.195,-0.898 -0.391,-0.838c-0.355,0.109 -0.565,1.438 -0.676,1.738c-0.09,0.241 -0.207,0.93 -0.322,0.7c-0.092,-0.185 0.107,-0.491 0.04,-0.691c-0.011,-0.034 -0.32,0.418 -0.346,0.456c-0.139,0.205 -0.603,1.112 -0.878,1.135c-0.175,0.014 -0.081,-0.447 -0.257,-0.462c-0.69,-0.058 -1.536,0.477 -2.196,0.33c-0.232,-0.051 0.75,-0.252 0.578,-0.416c-0.233,-0.22 -1.801,-0.221 -1.392,-0.835l0.141,-0.058c0.096,-0.671 0.79,-1.299 0.823,-1.885c0.011,-0.195 -0.824,0.209 -0.542,-0.275c0.223,-0.381 1.646,-1.304 1.646,-1.621c0,-0.271 -0.806,0.014 -0.771,-0.254c0.065,-0.493 1.176,-1.485 1.102,-1.817c-0.014,-0.063 -1.273,0.552 -1.236,0.189c0.069,-0.691 1.685,-1.482 1.636,-1.9c-0.035,-0.301 -1.677,-0.269 -1.63,-0.596c0.022,-0.153 0.732,-0.248 0.844,-0.272c0.479,-0.103 2.451,-0.261 2.708,-0.722c0.015,-0.027 -1.722,-0.122 -1.472,-0.478c0.429,-0.61 1.622,-0.896 2.27,-1.187c0.255,-0.114 0.513,-0.217 0.781,-0.296c0.117,-0.035 0.443,-0.209 0.337,-0.147l0.366,-0.871c1.114,-3.34 2.888,-6.419 5.06,-9.194c2.629,-3.36 6.623,-6.997 10.675,-8.643c16.987,-6.898 31.679,0.395 43.987,8.19c6.581,4.168 19.404,13.925 9.445,24.509c-6.66,7.078 -33.023,11.142 -33.521,11.166c-1.657,0.08 -16.237,1.026 -17.876,1.068c-18.513,0.471 -37.658,-4.142 -55.929,-15.562c-9.524,-5.952 -16.211,-10.851 -24.53,-18.369c-2.748,-2.484 -12.674,-12.558 -15.251,-15.216c-0.869,-0.896 -15.038,-18.8 -25.294,-28.193c-7.634,-6.991 -16.108,-12.715 -24.841,-18.21c-12.162,-7.653 -25.011,-14.244 -38.896,-18.081c-12.445,-3.438 -26.594,-4.255 -39.016,-0.287c-4.224,1.349 -8.178,3.035 -11.968,5.342c-1.235,0.752 -2.46,1.52 -3.665,2.323c-0.416,0.278 -0.833,0.556 -1.25,0.834c-0.085,0.057 -1.619,1.061 -1.494,1.104l-1.141,0.951c-5.169,4.48 -7.256,14.027 -5.658,20.418c0.621,2.484 2.102,4.837 4.326,6.171c0.269,0.161 3.034,1.372 3.058,1.113l0.574,-0.226c0.205,-0.136 1.594,1.089 1.802,1.233c1.96,1.364 3.956,2.61 5.846,4.08c8.148,6.337 16.67,12.184 24.697,18.693c6.912,5.604 14.412,10.562 21.417,16.076c13.12,10.329 25.468,21.503 38.303,32.153c8.331,6.913 15.995,14.028 23.898,21.132c5.621,5.052 12.427,9.972 18.109,15.654l0.971,0.534c-0.204,-0.088 0.254,0.374 0.432,0.505c0.358,0.264 0.773,0.439 1.191,0.578c1.192,0.398 2.665,0.282 3.7,1.05c2.184,1.62 3.246,4.456 5.593,5.97c0.476,0.307 1.647,1.186 2.255,0.983c0.802,-0.267 0.189,-1.346 0.514,-1.871c0.456,-0.736 2.868,-0.168 3.468,0.141c2.238,1.153 3.889,4.165 2.995,6.685c-0.289,0.814 -1.277,1.242 -1.399,2.093c-0.135,0.944 2.344,2.44 0.723,3.101c-1.304,0.531 -2.767,-1.994 -3.556,-2.678c-1.131,-0.98 -1.986,-1.14 -3.371,-1.14l-0.928,0.445c1.725,0.974 2.171,4.024 3.25,5.104c3.322,3.322 5.673,8.244 8.503,11.073c1.46,1.46 6.019,-0.507 7.317,0.791c0.405,0.405 1.163,1.868 1.78,2.176c1.806,0.903 6.125,-1.382 7.316,-1.978c1.588,-0.794 3.493,2.439 4.548,1.384c0.165,-0.164 1.316,-2.639 0.593,-3.361c-2.072,-2.073 -4.358,-3.94 -2.372,-7.91c1.789,-3.579 5.8,-5.041 8.247,-7.488c0.812,-0.812 -0.471,-3.363 0.253,-4.088c0.603,-0.602 2.574,-1.469 3.104,-2c1.777,-1.777 3.543,-2.758 5.006,-4.221c0.433,-0.433 2.094,-0.274 2.588,-0.317c1.828,-0.161 3.178,4.386 4.531,5.063c5.035,2.517 12.34,0.121 12.34,8.531c-0,0 0.271,1.473 -0.62,2.631c-2.283,2.966 -5.191,4.885 -7.765,8.019c-0.376,0.457 -2.63,3.698 -1.582,4.746c2.389,2.389 6.229,-0.049 9.492,1.582c2.21,1.105 3.736,2.659 5.932,3.757c1.378,0.689 3.447,0.636 4.944,1.384c1.123,0.562 3.206,1.858 4.152,1.384c1.026,-0.513 5.451,2.064 5.735,1.78c1.008,-1.008 3.323,-1.307 3.955,-2.571c0.518,-1.036 1.139,-7.363 0.198,-8.305c-0.924,-0.924 -3.15,-1.414 -1.78,-4.152c0.569,-1.138 -3.755,-4.551 -1.78,-6.526c1.508,-1.508 7.372,2.428 7.91,2.966c1.491,1.491 -1.012,6.7 0.395,8.108c1.289,1.288 1.43,4.242 2.176,5.734c0.682,1.366 1.039,2.871 1.779,4.351c1.292,2.583 -1.911,5.998 -2.57,7.316c-2.84,5.679 -11.456,5.333 -17.006,8.108c-1.886,0.943 -6.778,-1.473 -8.108,1.186c-0.857,1.714 2.571,5.142 2.571,5.142c-0,-0 -1.552,1.612 -0.989,2.175c0.284,0.284 3.989,3.723 2.175,5.537c-0.526,0.526 -0.406,1.988 -0.989,2.57c-1.709,1.71 -3.132,4.122 -4.943,5.933c-0.269,0.269 0.099,2.076 0.198,2.175c1.877,1.877 1.582,4.851 1.582,8.305c-0,3.203 -1.108,9.451 0.197,12.063c0.646,1.29 1.614,5.472 0.791,7.119c-2.101,4.202 -2.965,11.074 0.396,14.435c1.067,1.067 5.119,-0.615 6.13,0.395c0.082,0.083 3.486,0.074 2.373,1.187c-1.613,1.613 -4.477,0.261 -6.724,1.384c-0.667,0.334 -2.656,-0.507 -3.163,0c-0.074,0.074 -0.074,1.706 -0,1.78c0.716,0.716 3.911,-0.74 4.943,-0.396c3.6,1.2 7.268,-0.123 10.678,1.582c0.849,0.425 4.549,0.329 4.549,1.384" style="fill:#fff;stroke:#fff;stroke-width:1px;"/><path d="M274.691,300.991c-0.184,-0.141 1.665,-0.271 1.856,-0.271c1.244,-0 2.485,0.028 3.73,0.013c1.914,-0.022 3.762,-0.217 5.602,0.47c1.707,0.636 3.255,2.112 5.067,2.342c2.501,0.319 5.009,-1.007 7.261,-1.846c1.799,-0.67 3.565,-1.003 5.478,-1.125c1.055,-0.067 2.216,-0.222 3.265,-0.054c0.294,0.046 0.946,0.163 0.968,0.573c0.025,0.479 -1.494,0.688 -1.753,0.738c-1.96,0.374 -3.965,0.558 -5.901,1.048c-3.251,0.823 -5.849,2.686 -9.362,2.493c-3.433,-0.188 -6.296,-2.369 -9.618,-2.973c-1.6,-0.291 -3.236,-0.177 -4.847,-0.387c-0.671,-0.088 -1.547,-0.034 -1.8,-0.793" style="fill:#fff;stroke:#fff;stroke-width:1px;"/><path d="M266.182,326.824c-0.776,-0.183 2.702,-0.182 3.048,-0.197c2.305,-0.101 4.6,-0.249 6.897,-0.461c2.451,-0.227 5.114,-0.842 7.541,-0.162c1.945,0.545 3.582,2.007 5.61,2.43c2.866,0.599 5.903,0.228 8.806,0.332c1.773,0.064 3.543,0.184 5.261,0.656c0.302,0.083 1.601,0.351 1.514,0.856c-0.106,0.616 -1.288,0.564 -1.725,0.592c-1.841,0.119 -3.706,0.085 -5.55,0.085c-2.648,0 -5.299,0 -7.947,-0.024c-1.467,-0.014 -3.09,-0.272 -4.543,-0.006c-1.218,0.224 -2.235,1.185 -3.453,1.528c-1.476,0.417 -3.143,0.559 -4.502,1.314c-2.312,1.285 -0.769,4.955 -2.452,6.968c-0.347,0.414 -0.846,1.024 -1.421,1.108c-0.522,0.077 -0.623,-1.327 -0.87,-1.69c-1.069,-1.568 -2.714,-3.542 -1.374,-5.48c0.997,-1.443 3.016,-1.922 4.43,-2.834c0.724,-0.467 1.294,-1.276 0.727,-2.118c-0.535,-0.794 -1.859,-0.685 -2.683,-0.809c-1.282,-0.193 -2.456,-0.852 -3.703,-0.993c-1.177,-0.133 -2.722,0.149 -3.632,-0.812" style="fill:#fff;stroke:#fff;stroke-width:1px;"/><path d="M154.658,344.13c-0.04,-0.001 0.764,-0.002 0.952,0.011c0.646,0.045 1.295,0.042 1.94,0.101c1.95,0.18 3.875,0.385 5.778,0.879c3.979,1.033 7.638,3.036 11.94,2.308c1.997,-0.338 3.434,-1.691 5.352,-2.147c1.381,-0.329 2.834,-0.434 4.231,-0.688c0.375,-0.069 1.268,-0.18 1.309,-0.713c0.068,-0.883 -2.765,-0.538 -3.229,-0.502c-3.453,0.265 -6.348,2.226 -9.777,2.425c-2.811,0.163 -5.195,-1.158 -7.874,-1.78c-2.103,-0.488 -4.284,-0.296 -6.399,-0.029c-0.9,0.113 -1.832,0.193 -2.739,0.193c-0.127,-0 -0.84,-0.093 -0.923,-0.01" style="fill:#fff;stroke:#fff;stroke-width:1px;"/><path d="M158.505,310.402c0.15,-0.064 -0.588,0.027 -0.694,0.032c-0.535,0.028 -1.075,0.081 -1.601,0.186c-1.554,0.311 -8.169,0.964 -9.747,1.164c-4.671,0.593 -4.279,0.607 -8.967,1.009c-11.042,0.946 -22.236,0.688 -33.309,0.948c-2.655,0.063 -5.322,-0.223 -7.974,-0.08c-0.453,0.025 -2.413,-0.136 -2.585,0.552c-0.179,0.716 2.963,1.386 3.338,1.465c3.92,0.831 8.151,0.988 12.145,1.22c11.038,0.642 22.168,-0.43 33.153,0.341c5.038,0.354 9.902,1.765 14.855,2.645c4.071,0.724 8.121,0.288 12.21,0.452c0.451,0.018 3.654,0.017 3.488,0.793c-0.323,1.507 -3.938,1.396 -4.974,1.43c-5.342,0.175 -10.329,-0.3 -15.582,-1.28c-17.959,-3.348 -36.716,-0.262 -54.904,-1.219c-4.48,-0.236 -9.262,-0.139 -13.545,-1.611c-1.773,-0.61 -4.047,-1.987 -4.206,-4.105c-0.134,-1.786 2.629,-2.593 3.925,-2.941c4.455,-1.197 10.094,-0.559 14.659,-0.507c13.329,0.15 26.821,1.924 40.008,0.01c8.548,-1.241 14.175,0.099 20.307,-0.504Z" style="fill:#fff;stroke:#fff;stroke-width:1px;"/><path d="M250.755,120.97c0.12,0.133 -0.359,-0.034 -0.538,-0.023c-0.413,0.026 -0.828,0.035 -1.239,0.077c-1.005,0.102 -2.188,0.39 -3.148,-0.028c-1.689,-0.735 -1.235,-2.436 0.162,-3.142c0.481,-0.243 0.994,-0.438 1.523,-0.544" style="fill:#fff;stroke:#fff;stroke-width:1px;"/></g><g><path d="M353.179,175.959l0,17.432c0,2.877 0.159,4.676 0.478,5.395c0.318,0.719 0.94,1.349 1.867,1.888c0.927,0.54 2.179,0.81 3.756,0.81l1.868,-0l0,1.535l-29.426,0l-0,-1.535l1.867,-0c1.633,-0 2.947,-0.291 3.943,-0.872c0.72,-0.387 1.273,-1.051 1.661,-1.992c0.304,-0.664 0.456,-2.407 0.456,-5.229l0,-37.022c0,-2.878 -0.152,-4.676 -0.456,-5.395c-0.305,-0.72 -0.92,-1.349 -1.847,-1.889c-0.927,-0.539 -2.179,-0.809 -3.757,-0.809l-1.867,-0l-0,-1.536l29.426,0l0,1.536l-1.868,-0c-1.632,-0 -2.946,0.29 -3.942,0.871c-0.72,0.388 -1.287,1.052 -1.702,1.993c-0.304,0.664 -0.457,2.407 -0.457,5.229l0,15.938l19.881,-0l-0,-15.938c-0,-2.878 -0.152,-4.676 -0.457,-5.395c-0.304,-0.72 -0.927,-1.349 -1.868,-1.889c-0.94,-0.539 -2.199,-0.809 -3.776,-0.809l-1.827,-0l0,-1.536l29.385,0l0,1.536l-1.826,-0c-1.66,-0 -2.974,0.29 -3.943,0.871c-0.719,0.388 -1.286,1.052 -1.701,1.993c-0.305,0.664 -0.457,2.407 -0.457,5.229l-0,37.022c-0,2.877 0.152,4.676 0.457,5.395c0.304,0.719 0.926,1.349 1.867,1.888c0.941,0.54 2.2,0.81 3.777,0.81l1.826,-0l0,1.535l-29.385,0l0,-1.535l1.827,-0c1.66,-0 2.974,-0.291 3.942,-0.872c0.72,-0.387 1.287,-1.051 1.702,-1.992c0.305,-0.664 0.457,-2.407 0.457,-5.229l-0,-17.432l-19.881,-0Z" style="fill:#fff;fill-rule:nonzero;stroke:#fff;stroke-width:1px;stroke-linecap:butt;stroke-miterlimit:2;"/><path d="M428.882,145.952c8.965,-0.332 16.249,2.282 21.852,7.844c5.603,5.561 8.405,12.52 8.405,20.876c-0,7.139 -2.089,13.42 -6.267,18.843c-5.534,7.194 -13.351,10.791 -23.45,10.791c-10.127,0 -17.957,-3.431 -23.491,-10.293c-4.372,-5.423 -6.558,-11.856 -6.558,-19.299c0,-8.356 2.843,-15.322 8.529,-20.897c5.686,-5.576 12.68,-8.197 20.98,-7.865Zm0.498,2.656c-5.146,-0 -9.061,2.628 -11.745,7.886c-2.186,4.316 -3.279,10.514 -3.279,18.593c0,9.602 1.688,16.699 5.064,21.292c2.351,3.209 5.644,4.814 9.877,4.814c2.85,0 5.23,-0.691 7.139,-2.075c2.435,-1.771 4.33,-4.6 5.686,-8.487c1.356,-3.888 2.034,-8.958 2.034,-15.212c-0,-7.443 -0.692,-13.011 -2.075,-16.705c-1.384,-3.694 -3.148,-6.302 -5.292,-7.823c-2.144,-1.522 -4.614,-2.283 -7.409,-2.283Z" style="fill:#fff;fill-rule:nonzero;stroke:#fff;stroke-width:1px;stroke-linecap:butt;stroke-miterlimit:2;"/><path d="M515.792,146.74l-0,15.232l-1.495,0c-0.885,-3.514 -1.867,-6.039 -2.946,-7.574c-1.079,-1.536 -2.56,-2.76 -4.441,-3.673c-1.052,-0.499 -2.892,-0.748 -5.52,-0.748l-4.192,0l-0,43.414c-0,2.877 0.159,4.676 0.477,5.395c0.318,0.719 0.941,1.349 1.868,1.888c0.927,0.54 2.193,0.81 3.797,0.81l1.868,-0l0,1.535l-29.468,0l0,-1.535l1.868,-0c1.633,-0 2.947,-0.291 3.943,-0.872c0.719,-0.387 1.287,-1.051 1.702,-1.992c0.304,-0.664 0.456,-2.407 0.456,-5.229l0,-43.414l-4.067,0c-3.791,0 -6.544,0.803 -8.26,2.408c-2.407,2.241 -3.929,5.437 -4.565,9.587l-1.577,0l-0,-15.232l50.552,0Z" style="fill:#fff;fill-rule:nonzero;stroke:#fff;stroke-width:1px;stroke-linecap:butt;stroke-miterlimit:2;"/><path d="M542.022,149.977l0,22.911l1.121,-0c3.569,-0 6.156,-1.121 7.761,-3.362c1.605,-2.241 2.629,-5.548 3.071,-9.92l1.577,0l0,29.468l-1.577,0c-0.332,-3.209 -1.03,-5.838 -2.096,-7.886c-1.065,-2.047 -2.303,-3.424 -3.714,-4.129c-1.411,-0.706 -3.459,-1.059 -6.143,-1.059l0,15.855c0,3.099 0.132,4.994 0.394,5.686c0.263,0.692 0.754,1.259 1.474,1.702c0.719,0.442 1.881,0.664 3.486,0.664l3.362,-0c5.257,-0 9.47,-1.218 12.638,-3.653c3.168,-2.435 5.444,-6.142 6.827,-11.123l1.536,0l-2.532,17.888l-48.642,0l-0,-1.535l1.867,-0c1.633,-0 2.947,-0.291 3.943,-0.872c0.72,-0.387 1.273,-1.051 1.66,-1.992c0.305,-0.664 0.457,-2.407 0.457,-5.229l-0,-37.022c-0,-2.546 -0.069,-4.109 -0.208,-4.69c-0.276,-0.968 -0.788,-1.715 -1.535,-2.241c-1.052,-0.775 -2.491,-1.162 -4.317,-1.162l-1.867,-0l-0,-1.536l47.107,0l-0,16.643l-1.578,0c-0.802,-4.067 -1.93,-6.986 -3.382,-8.757c-1.453,-1.771 -3.507,-3.071 -6.164,-3.901c-1.549,-0.499 -4.454,-0.748 -8.715,-0.748l-5.811,0Z" style="fill:#fff;fill-rule:nonzero;stroke:#fff;stroke-width:1px;stroke-linecap:butt;stroke-miterlimit:2;"/><path d="M629.222,183.264l-2.117,19.755l-49.971,0l0,-1.535l1.868,-0c1.633,-0 2.947,-0.291 3.943,-0.872c0.719,-0.387 1.273,-1.051 1.66,-1.992c0.304,-0.664 0.457,-2.407 0.457,-5.229l-0,-37.022c-0,-2.878 -0.153,-4.676 -0.457,-5.395c-0.304,-0.72 -0.92,-1.349 -1.847,-1.889c-0.927,-0.539 -2.179,-0.809 -3.756,-0.809l-1.868,-0l0,-1.536l30.008,0l-0,1.536l-2.449,-0c-1.632,-0 -2.947,0.29 -3.943,0.871c-0.719,0.388 -1.286,1.052 -1.702,1.993c-0.304,0.664 -0.456,2.407 -0.456,5.229l-0,35.859c-0,2.878 0.166,4.711 0.498,5.5c0.332,0.788 0.982,1.376 1.951,1.764c0.691,0.249 2.365,0.373 5.022,0.373l4.69,0c2.988,0 5.478,-0.526 7.47,-1.577c1.992,-1.051 3.715,-2.712 5.168,-4.98c1.452,-2.269 2.829,-5.617 4.129,-10.044l1.702,-0Z" style="fill:#fff;fill-rule:nonzero;stroke:#fff;stroke-width:1px;stroke-linecap:butt;stroke-miterlimit:2;"/><path d="M472.952,215.205l17.09,-0l0,0.903l-0.854,0c-1.286,0 -2.169,0.134 -2.649,0.403c-0.48,0.269 -0.822,0.639 -1.026,1.111c-0.203,0.472 -0.305,1.652 -0.305,3.54l0,16.211c0,2.962 0.224,4.923 0.671,5.884c0.448,0.96 1.185,1.757 2.21,2.392c1.025,0.635 2.319,0.952 3.882,0.952c1.79,0 3.316,-0.402 4.577,-1.208c1.262,-0.806 2.206,-1.917 2.832,-3.333c0.627,-1.416 0.94,-3.881 0.94,-7.397l0,-13.501c0,-1.481 -0.154,-2.539 -0.463,-3.174c-0.31,-0.635 -0.7,-1.074 -1.172,-1.318c-0.733,-0.375 -1.766,-0.562 -3.101,-0.562l0,-0.903l11.45,-0l0,0.903l-0.683,0c-0.928,0 -1.701,0.187 -2.32,0.562c-0.618,0.374 -1.066,0.936 -1.342,1.684c-0.212,0.521 -0.318,1.457 -0.318,2.808l0,12.573c0,3.89 -0.256,6.698 -0.769,8.423c-0.513,1.725 -1.762,3.312 -3.747,4.761c-1.986,1.448 -4.696,2.173 -8.13,2.173c-2.865,-0 -5.078,-0.383 -6.641,-1.148c-2.132,-1.042 -3.638,-2.376 -4.517,-4.004c-0.878,-1.627 -1.318,-3.817 -1.318,-6.567l0,-16.211c0,-1.904 -0.106,-3.088 -0.317,-3.552c-0.212,-0.464 -0.578,-0.834 -1.099,-1.111c-0.521,-0.277 -1.481,-0.407 -2.881,-0.391l0,-0.903Z" style="fill:#fff;fill-rule:nonzero;stroke:#fff;stroke-width:1px;stroke-linecap:butt;stroke-miterlimit:2;"/><path d="M539.456,236.689l-1.245,11.621l-29.394,0l-0,-0.903l1.098,0c0.96,0 1.734,-0.171 2.319,-0.513c0.424,-0.228 0.749,-0.618 0.977,-1.172c0.179,-0.39 0.269,-1.416 0.269,-3.076l-0,-21.777c-0,-1.693 -0.09,-2.751 -0.269,-3.174c-0.179,-0.423 -0.541,-0.793 -1.086,-1.111c-0.546,-0.317 -1.282,-0.476 -2.21,-0.476l-1.098,0l-0,-0.903l17.651,-0l-0,0.903l-1.441,0c-0.96,0 -1.733,0.171 -2.319,0.513c-0.423,0.228 -0.757,0.618 -1.001,1.172c-0.179,0.39 -0.268,1.416 -0.268,3.076l-0,21.094c-0,1.692 0.097,2.771 0.293,3.235c0.195,0.463 0.577,0.809 1.147,1.037c0.407,0.147 1.392,0.22 2.954,0.22l2.759,-0c1.758,-0 3.223,-0.309 4.394,-0.928c1.172,-0.618 2.185,-1.595 3.04,-2.93c0.854,-1.334 1.664,-3.304 2.429,-5.908l1.001,0Z" style="fill:#fff;fill-rule:nonzero;stroke:#fff;stroke-width:1px;stroke-linecap:butt;stroke-miterlimit:2;"/><path d="M568.192,215.205l-0,8.96l-0.879,-0c-0.521,-2.067 -1.099,-3.552 -1.734,-4.456c-0.635,-0.903 -1.505,-1.623 -2.612,-2.16c-0.619,-0.293 -1.701,-0.44 -3.247,-0.44l-2.466,0l0,25.537c0,1.693 0.094,2.751 0.281,3.174c0.187,0.423 0.553,0.794 1.098,1.111c0.546,0.317 1.29,0.476 2.234,0.476l1.099,0l-0,0.903l-17.334,0l-0,-0.903l1.099,0c0.96,0 1.733,-0.171 2.319,-0.513c0.423,-0.228 0.757,-0.618 1.001,-1.172c0.179,-0.39 0.268,-1.416 0.268,-3.076l0,-25.537l-2.392,0c-2.23,0 -3.849,0.472 -4.859,1.416c-1.416,1.319 -2.311,3.198 -2.685,5.64l-0.928,-0l0,-8.96l29.737,-0Z" style="fill:#fff;fill-rule:nonzero;stroke:#fff;stroke-width:1px;stroke-linecap:butt;stroke-miterlimit:2;"/><path d="M588.309,247.407l-0,0.903l-17.31,0l0,-0.903l1.099,0c0.96,0 1.733,-0.171 2.319,-0.513c0.423,-0.228 0.749,-0.618 0.977,-1.172c0.179,-0.39 0.268,-1.416 0.268,-3.076l0,-21.777c0,-1.693 -0.089,-2.751 -0.268,-3.174c-0.179,-0.423 -0.542,-0.793 -1.087,-1.111c-0.545,-0.317 -1.282,-0.476 -2.209,-0.476l-1.099,0l0,-0.903l17.31,-0l-0,0.903l-1.099,0c-0.96,0 -1.733,0.171 -2.319,0.513c-0.423,0.228 -0.757,0.618 -1.001,1.172c-0.179,0.39 -0.269,1.416 -0.269,3.076l0,21.777c0,1.693 0.094,2.751 0.281,3.174c0.187,0.423 0.553,0.794 1.099,1.111c0.545,0.317 1.281,0.476 2.209,0.476l1.099,0Z" style="fill:#fff;fill-rule:nonzero;stroke:#fff;stroke-width:1px;stroke-linecap:butt;stroke-miterlimit:2;"/><path d="M613.284,237.031l8.985,-21.826l13.476,-0l0,0.903l-1.074,0c-0.977,0 -1.758,0.171 -2.344,0.513c-0.407,0.228 -0.732,0.61 -0.976,1.147c-0.179,0.391 -0.269,1.408 -0.269,3.052l0,21.826c0,1.693 0.09,2.751 0.269,3.174c0.179,0.423 0.545,0.794 1.098,1.111c0.554,0.317 1.294,0.476 2.222,0.476l1.074,0l0,0.903l-17.285,0l0,-0.903l1.074,0c0.977,0 1.758,-0.171 2.344,-0.513c0.407,-0.228 0.732,-0.618 0.977,-1.172c0.179,-0.39 0.268,-1.416 0.268,-3.076l0,-24.536l-12.695,30.2l-0.586,0l-12.891,-29.98l0,23.315c0,1.628 0.041,2.629 0.122,3.003c0.212,0.814 0.672,1.477 1.38,1.99c0.708,0.513 1.819,0.769 3.332,0.769l0,0.903l-11.328,0l0,-0.903l0.342,0c0.732,0.016 1.416,-0.102 2.051,-0.354c0.634,-0.252 1.115,-0.59 1.44,-1.013c0.326,-0.423 0.578,-1.017 0.757,-1.782c0.033,-0.179 0.049,-1.01 0.049,-2.491l-0,-20.947c-0,-1.676 -0.09,-2.722 -0.269,-3.137c-0.179,-0.415 -0.545,-0.781 -1.098,-1.099c-0.554,-0.317 -1.294,-0.476 -2.222,-0.476l-1.05,0l0,-0.903l13.526,-0l9.301,21.826Z" style="fill:#fff;fill-rule:nonzero;stroke:#fff;stroke-width:1px;stroke-linecap:butt;stroke-miterlimit:2;"/><path d="M655.96,214.741c5.274,-0.195 9.558,1.343 12.854,4.614c3.296,3.272 4.944,7.365 4.944,12.281c-0,4.199 -1.229,7.893 -3.687,11.084c-3.255,4.231 -7.853,6.347 -13.794,6.347c-5.957,0 -10.563,-2.018 -13.818,-6.055c-2.572,-3.19 -3.857,-6.974 -3.857,-11.352c-0,-4.915 1.672,-9.013 5.017,-12.293c3.344,-3.279 7.458,-4.821 12.341,-4.626Zm0.293,1.563c-3.027,-0 -5.33,1.546 -6.909,4.638c-1.286,2.539 -1.929,6.185 -1.929,10.938c0,5.647 0.993,9.822 2.979,12.524c1.383,1.888 3.32,2.832 5.81,2.832c1.677,0 3.076,-0.407 4.199,-1.221c1.433,-1.041 2.548,-2.705 3.345,-4.992c0.798,-2.287 1.196,-5.27 1.196,-8.948c0,-4.378 -0.406,-7.654 -1.22,-9.827c-0.814,-2.173 -1.852,-3.707 -3.113,-4.602c-1.261,-0.895 -2.714,-1.342 -4.358,-1.342Z" style="fill:#fff;fill-rule:nonzero;stroke:#fff;stroke-width:1px;stroke-linecap:butt;stroke-miterlimit:2;"/><path d="M420.413,288.488l-0,15.605c-0,3.044 0.186,4.96 0.56,5.749c0.374,0.788 1.038,1.418 1.992,1.888c0.955,0.471 2.705,0.706 5.25,0.706l0,1.535l-28.596,0l0,-1.535c2.601,-0 4.365,-0.242 5.292,-0.727c0.927,-0.484 1.577,-1.113 1.951,-1.888c0.373,-0.775 0.56,-2.684 0.56,-5.728l-0,-36.523c-0,-3.044 -0.187,-4.96 -0.56,-5.748c-0.374,-0.789 -1.031,-1.418 -1.972,-1.889c-0.94,-0.47 -2.697,-0.705 -5.271,-0.705l0,-1.536l24.529,0c8.08,0 13.876,1.439 17.39,4.316c3.514,2.878 5.271,6.475 5.271,10.791c0,3.653 -1.134,6.779 -3.403,9.38c-2.269,2.601 -5.396,4.372 -9.38,5.313c-2.684,0.664 -7.222,0.996 -13.613,0.996Zm-0,-27.559l-0,24.322c0.913,0.055 1.605,0.083 2.075,0.083c3.376,-0 5.976,-1.003 7.803,-3.009c1.826,-2.006 2.739,-5.112 2.739,-9.318c-0,-4.178 -0.913,-7.235 -2.739,-9.172c-1.827,-1.937 -4.552,-2.906 -8.177,-2.906l-1.701,0Z" style="fill:#fff;fill-rule:nonzero;stroke:#fff;stroke-width:1px;stroke-linecap:butt;stroke-miterlimit:2;"/><path d="M478.435,297.951l-19.88,-0l-2.366,5.478c-0.775,1.827 -1.162,3.335 -1.162,4.524c-0,1.577 0.636,2.74 1.909,3.487c0.747,0.442 2.587,0.774 5.52,0.996l0,1.535l-18.718,0l-0,-1.535c2.02,-0.305 3.68,-1.142 4.98,-2.511c1.301,-1.37 2.906,-4.199 4.815,-8.488l20.129,-44.907l0.789,-0l20.295,46.152c1.937,4.372 3.528,7.125 4.773,8.26c0.941,0.857 2.269,1.355 3.985,1.494l-0,1.535l-27.227,0l-0,-1.535l1.121,-0c2.185,-0 3.721,-0.305 4.607,-0.913c0.608,-0.443 0.913,-1.079 0.913,-1.91c-0,-0.498 -0.083,-1.009 -0.249,-1.535c-0.056,-0.249 -0.471,-1.287 -1.246,-3.113l-2.988,-7.014Zm-1.411,-3.071l-8.384,-19.383l-8.633,19.383l17.017,-0Z" style="fill:#fff;fill-rule:nonzero;stroke:#fff;stroke-width:1px;stroke-linecap:butt;stroke-miterlimit:2;"/><path d="M527.036,288.322l0,15.771c0,3.044 0.187,4.96 0.561,5.749c0.373,0.788 1.03,1.418 1.971,1.888c0.941,0.471 2.698,0.706 5.271,0.706l-0,1.535l-28.804,0l0,-1.535c2.601,-0 4.365,-0.242 5.292,-0.727c0.927,-0.484 1.577,-1.113 1.951,-1.888c0.373,-0.775 0.56,-2.684 0.56,-5.728l0,-36.523c0,-3.044 -0.187,-4.96 -0.56,-5.748c-0.374,-0.789 -1.031,-1.418 -1.972,-1.889c-0.94,-0.47 -2.697,-0.705 -5.271,-0.705l0,-1.536l26.148,0c6.806,0 11.787,0.47 14.941,1.411c3.154,0.941 5.728,2.677 7.72,5.209c1.992,2.532 2.988,5.499 2.988,8.903c0,4.15 -1.494,7.581 -4.482,10.293c-1.909,1.715 -4.58,3.002 -8.011,3.859l13.531,19.051c1.771,2.462 3.03,3.998 3.777,4.607c1.134,0.857 2.448,1.328 3.942,1.411l0,1.535l-17.722,0l-18.137,-25.649l-3.694,-0Zm0,-27.6l0,24.653l2.366,0c3.846,0 6.724,-0.353 8.633,-1.058c1.909,-0.706 3.41,-1.979 4.503,-3.819c1.093,-1.84 1.639,-4.24 1.639,-7.2c0,-4.289 -1.003,-7.457 -3.009,-9.505c-2.006,-2.047 -5.236,-3.071 -9.691,-3.071l-4.441,-0Z" style="fill:#fff;fill-rule:nonzero;stroke:#fff;stroke-width:1px;stroke-linecap:butt;stroke-miterlimit:2;"/><path d="M601.204,297.951l-19.881,-0l-2.365,5.478c-0.775,1.827 -1.162,3.335 -1.162,4.524c-0,1.577 0.636,2.74 1.909,3.487c0.747,0.442 2.587,0.774 5.52,0.996l-0,1.535l-18.719,0l0,-1.535c2.02,-0.305 3.68,-1.142 4.981,-2.511c1.3,-1.37 2.905,-4.199 4.814,-8.488l20.13,-44.907l0.788,-0l20.296,46.152c1.937,4.372 3.528,7.125 4.773,8.26c0.94,0.857 2.269,1.355 3.984,1.494l0,1.535l-27.226,0l-0,-1.535l1.12,-0c2.186,-0 3.722,-0.305 4.607,-0.913c0.609,-0.443 0.913,-1.079 0.913,-1.91c0,-0.498 -0.083,-1.009 -0.249,-1.535c-0.055,-0.249 -0.47,-1.287 -1.245,-3.113l-2.988,-7.014Zm-1.411,-3.071l-8.384,-19.383l-8.633,19.383l17.017,-0Z" style="fill:#fff;fill-rule:nonzero;stroke:#fff;stroke-width:1px;stroke-linecap:butt;stroke-miterlimit:2;"/><path d="M658.355,312.436l-0,1.535l-29.427,0l0,-1.535l1.868,-0c1.633,-0 2.947,-0.291 3.943,-0.872c0.719,-0.387 1.273,-1.051 1.66,-1.992c0.304,-0.664 0.457,-2.407 0.457,-5.23l-0,-37.021c-0,-2.878 -0.153,-4.676 -0.457,-5.396c-0.304,-0.719 -0.92,-1.348 -1.847,-1.888c-0.927,-0.54 -2.179,-0.809 -3.756,-0.809l-1.868,-0l0,-1.536l29.427,0l-0,1.536l-1.868,-0c-1.633,-0 -2.947,0.29 -3.943,0.871c-0.719,0.388 -1.287,1.052 -1.702,1.992c-0.304,0.665 -0.456,2.408 -0.456,5.23l-0,37.021c-0,2.878 0.159,4.677 0.477,5.396c0.318,0.719 0.941,1.349 1.868,1.888c0.927,0.54 2.179,0.81 3.756,0.81l1.868,-0Z" style="fill:#fff;fill-rule:nonzero;stroke:#fff;stroke-width:1px;stroke-linecap:butt;stroke-miterlimit:2;"/><path d="M700.232,256.405l0.457,18.76l-1.702,0c-0.802,-4.704 -2.774,-8.487 -5.914,-11.351c-3.141,-2.864 -6.537,-4.296 -10.19,-4.296c-2.822,0 -5.056,0.754 -6.702,2.262c-1.647,1.508 -2.47,3.244 -2.47,5.209c0,1.245 0.291,2.352 0.872,3.32c0.802,1.301 2.089,2.587 3.86,3.86c1.3,0.913 4.302,2.532 9.006,4.856c6.585,3.237 11.026,6.295 13.323,9.172c2.268,2.878 3.403,6.171 3.403,9.878c-0,4.704 -1.833,8.751 -5.499,12.14c-3.667,3.39 -8.322,5.084 -13.966,5.084c-1.771,0 -3.445,-0.179 -5.022,-0.539c-1.578,-0.36 -3.556,-1.038 -5.935,-2.034c-1.329,-0.553 -2.421,-0.83 -3.279,-0.83c-0.72,0 -1.481,0.277 -2.283,0.83c-0.802,0.554 -1.453,1.398 -1.951,2.532l-1.535,-0l-0,-21.25l1.535,-0c1.218,5.977 3.563,10.535 7.035,13.676c3.473,3.14 7.215,4.71 11.227,4.71c3.099,0 5.569,-0.844 7.409,-2.532c1.84,-1.687 2.76,-3.652 2.76,-5.893c-0,-1.328 -0.353,-2.615 -1.059,-3.86c-0.705,-1.245 -1.778,-2.428 -3.216,-3.549c-1.439,-1.12 -3.985,-2.58 -7.637,-4.378c-5.119,-2.518 -8.799,-4.662 -11.04,-6.433c-2.241,-1.771 -3.964,-3.749 -5.167,-5.935c-1.204,-2.186 -1.806,-4.593 -1.806,-7.222c0,-4.482 1.647,-8.301 4.939,-11.455c3.293,-3.154 7.443,-4.732 12.451,-4.732c1.827,0 3.597,0.222 5.313,0.665c1.3,0.332 2.884,0.947 4.752,1.846c1.868,0.9 3.175,1.349 3.922,1.349c0.72,0 1.287,-0.221 1.702,-0.664c0.415,-0.442 0.802,-1.508 1.162,-3.196l1.245,0Z" style="fill:#fff;fill-rule:nonzero;stroke:#fff;stroke-width:1px;stroke-linecap:butt;stroke-miterlimit:2;"/><path d="M740.408,256.904c8.965,-0.333 16.249,2.282 21.852,7.844c5.603,5.561 8.404,12.52 8.404,20.876c0,7.139 -2.089,13.42 -6.267,18.843c-5.534,7.194 -13.35,10.791 -23.45,10.791c-10.127,-0 -17.957,-3.431 -23.491,-10.293c-4.372,-5.423 -6.557,-11.856 -6.557,-19.299c-0,-8.356 2.843,-15.322 8.529,-20.898c5.686,-5.575 12.679,-8.197 20.98,-7.864Zm0.498,2.656c-5.147,-0 -9.062,2.628 -11.746,7.885c-2.186,4.317 -3.279,10.515 -3.279,18.594c0,9.601 1.688,16.699 5.064,21.292c2.352,3.209 5.644,4.814 9.878,4.814c2.85,0 5.229,-0.692 7.139,-2.075c2.434,-1.771 4.33,-4.6 5.686,-8.488c1.355,-3.887 2.033,-8.957 2.033,-15.211c0,-7.443 -0.691,-13.011 -2.075,-16.705c-1.383,-3.694 -3.147,-6.302 -5.292,-7.824c-2.144,-1.521 -4.614,-2.282 -7.408,-2.282Z" style="fill:#fff;fill-rule:nonzero;stroke:#fff;stroke-width:1px;stroke-linecap:butt;stroke-miterlimit:2;"/></g></svg>